<?xml version="1.0" encoding="utf-8"?>
<!-- Generator: Adobe Illustrator 24.0.1, SVG Export Plug-In . SVG Version: 6.00 Build 0)  -->
<svg version="1.1" id="Layer_1" xmlns="http://www.w3.org/2000/svg" xmlns:xlink="http://www.w3.org/1999/xlink" x="0px" y="0px"
	 viewBox="0 0 20 20" style="enable-background:new 0 0 20 20;" xml:space="preserve">
<style type="text/css">
	.st0{fill:#8BA0C0;}
</style>
<path class="st0" d="M16.7,9H5.7L9,5.7c0.4-0.4,0.4-1,0-1.4s-1-0.4-1.4,0l-5,5C2.5,9.4,2.5,9.5,2.4,9.6c-0.1,0.2-0.1,0.5,0,0.8
	c0.1,0.1,0.1,0.2,0.2,0.3l5,5C7.8,15.9,8.1,16,8.3,16s0.5-0.1,0.7-0.3c0.4-0.4,0.4-1,0-1.4L5.7,11h10.9c0.6,0,1-0.4,1-1
	S17.2,9,16.7,9z"/>
</svg>
