<svg width="18" height="16" viewBox="0 0 18 16" fill="none" xmlns="http://www.w3.org/2000/svg"><path fill-rule="evenodd" clip-rule="evenodd" d="M12.334 14v-1.333A2.667 2.667 0 0 0 9.667 10H4.334a2.667 2.667 0 0 0-2.667 2.667V14" fill="#8BA0C0"/><path d="M12.334 14v-1.333A2.667 2.667 0 0 0 9.667 10H4.334a2.667 2.667 0 0 0-2.667 2.667V14h10.667z" stroke="#8BA0C0" stroke-width="1.5" stroke-linecap="round" stroke-linejoin="round"/><path fill-rule="evenodd" clip-rule="evenodd" d="M7 7.333A2.667 2.667 0 1 0 7 2a2.667 2.667 0 0 0 0 5.333z" fill="#8BA0C0" stroke="#8BA0C0" stroke-width="1.5" stroke-linecap="round" stroke-linejoin="round"/><path d="M16.333 14v-1.333a2.667 2.667 0 0 0-2-2.58M11.667 2.087a2.667 2.667 0 0 1 0 5.166" stroke="#8BA0C0" stroke-width="1.5" stroke-linecap="round" stroke-linejoin="round"/></svg>