<?xml version="1.0" encoding="utf-8"?>
<!-- Generator: Adobe Illustrator 24.0.1, SVG Export Plug-In . SVG Version: 6.00 Build 0)  -->
<svg version="1.1" id="Layer_1" xmlns="http://www.w3.org/2000/svg" xmlns:xlink="http://www.w3.org/1999/xlink" x="0px" y="0px"
	 viewBox="0 0 18 16" style="enable-background:new 0 0 18 16;" xml:space="preserve">
<style type="text/css">
	.st0{fill:#8BA0C0;}
</style>
<g>
	<path class="st0" d="M9.7,9.2H4.3c-1.9,0-3.4,1.5-3.4,3.4V14c0,0.4,0.3,0.8,0.8,0.8h10.7c0.4,0,0.8-0.3,0.8-0.8v-1.3
		C13.1,10.8,11.6,9.2,9.7,9.2z"/>
	<path class="st0" d="M7,8.1c1.9,0,3.4-1.5,3.4-3.4c0-1.9-1.5-3.4-3.4-3.4c-1.9,0-3.4,1.5-3.4,3.4C3.6,6.6,5.1,8.1,7,8.1z"/>
	<path class="st0" d="M14.5,9.4c-0.4-0.1-0.8,0.1-0.9,0.5s0.1,0.8,0.5,0.9c0.8,0.2,1.4,1,1.4,1.9V14c0,0.4,0.3,0.8,0.8,0.8
		s0.8-0.3,0.8-0.8v-1.3C17.1,11.1,16,9.8,14.5,9.4z"/>
	<path class="st0" d="M11.9,1.4c-0.4-0.1-0.8,0.1-0.9,0.5c-0.1,0.4,0.1,0.8,0.5,0.9c0.8,0.2,1.4,1,1.4,1.9s-0.6,1.6-1.4,1.9
		c-0.4,0.1-0.6,0.5-0.5,0.9C11,7.8,11.3,8,11.7,8c0.1,0,0.1,0,0.2,0c1.5-0.4,2.6-1.7,2.6-3.3S13.4,1.7,11.9,1.4z"/>
</g>
</svg>
