<?xml version="1.0" encoding="utf-8"?>
<!-- Generator: Adobe Illustrator 24.0.1, SVG Export Plug-In . SVG Version: 6.00 Build 0)  -->
<svg version="1.1" id="Layer_1" xmlns="http://www.w3.org/2000/svg" xmlns:xlink="http://www.w3.org/1999/xlink" x="0px" y="0px"
	 viewBox="0 0 20 14" style="enable-background:new 0 0 20 14;" xml:space="preserve">
<style type="text/css">
	.st0{fill:#8BA0C0;}
</style>
<g>
	<path class="st0" d="M19,6H1C0.4,6,0,6.4,0,7s0.4,1,1,1h18c0.6,0,1-0.4,1-1S19.6,6,19,6z"/>
	<path class="st0" d="M1,2h8c0.6,0,1-0.4,1-1S9.6,0,9,0H1C0.4,0,0,0.4,0,1S0.4,2,1,2z"/>
	<path class="st0" d="M13,12H1c-0.6,0-1,0.4-1,1s0.4,1,1,1h12c0.6,0,1-0.4,1-1S13.6,12,13,12z"/>
</g>
</svg>
