<?xml version="1.0" encoding="utf-8"?>
<!-- Generator: Adobe Illustrator 24.0.1, SVG Export Plug-In . SVG Version: 6.00 Build 0)  -->
<svg version="1.1" id="Layer_1" xmlns="http://www.w3.org/2000/svg" xmlns:xlink="http://www.w3.org/1999/xlink" x="0px" y="0px"
	 viewBox="0 0 12 12" style="enable-background:new 0 0 12 12;" xml:space="preserve">
<style type="text/css">
	.st0{fill:#8BA0C0;}
</style>
<path class="st0" d="M7.4,6l2.3-2.3c0.4-0.4,0.4-1,0-1.4s-1-0.4-1.4,0L6,4.6L3.7,2.3c-0.4-0.4-1-0.4-1.4,0s-0.4,1,0,1.4L4.6,6
	L2.3,8.3c-0.4,0.4-0.4,1,0,1.4C2.5,9.9,2.7,10,3,10s0.5-0.1,0.7-0.3L6,7.4l2.3,2.3C8.5,9.9,8.7,10,9,10s0.5-0.1,0.7-0.3
	c0.4-0.4,0.4-1,0-1.4L7.4,6z"/>
</svg>
