<svg width="18" height="16" viewBox="0 0 18 16" fill="none" xmlns="http://www.w3.org/2000/svg">
<path fill-rule="evenodd" clip-rule="evenodd" d="M12.3337 14V12.6667C12.3337 11.1939 11.1398 10 9.66699 10H4.33366C2.8609 10 1.66699 11.1939 1.66699 12.6667V14" fill="#8BA0C0"/>
<path d="M12.3337 14V12.6667C12.3337 11.1939 11.1398 10 9.66699 10H4.33366C2.8609 10 1.66699 11.1939 1.66699 12.6667V14H12.3337Z" stroke="#8BA0C0" stroke-width="1.5" stroke-linecap="round" stroke-linejoin="round"/>
<path fill-rule="evenodd" clip-rule="evenodd" d="M6.99967 7.33333C8.47243 7.33333 9.66634 6.13943 9.66634 4.66667C9.66634 3.19391 8.47243 2 6.99967 2C5.52692 2 4.33301 3.19391 4.33301 4.66667C4.33301 6.13943 5.52692 7.33333 6.99967 7.33333Z" fill="#8BA0C0" stroke="#8BA0C0" stroke-width="1.5" stroke-linecap="round" stroke-linejoin="round"/>
<path d="M16.333 14V12.6667C16.3321 11.4514 15.5097 10.3905 14.333 10.0867" stroke="#8BA0C0" stroke-width="1.5" stroke-linecap="round" stroke-linejoin="round"/>
<path d="M11.667 2.08667C12.8469 2.38878 13.6722 3.452 13.6722 4.67C13.6722 5.88801 12.8469 6.95122 11.667 7.25334" stroke="#8BA0C0" stroke-width="1.5" stroke-linecap="round" stroke-linejoin="round"/>
</svg>
