<svg width="51" height="12" viewBox="0 0 51 12" fill="none" xmlns="http://www.w3.org/2000/svg">
<path d="M8.61351 2.98782C8.3525 1.68877 7.27581 0 4.46989 0C2.28389 0 0.440464 1.55886 0.440464 3.60487C0.440464 5.34235 1.63135 6.52774 3.47477 6.90122L5.0898 7.22598C5.98704 7.4046 6.49276 7.92422 6.49276 8.58999C6.49276 9.40189 5.82391 10.0027 4.61671 10.0027C2.98537 10.0027 2.18601 8.9797 2.08812 7.84303L0 8.39513C0.179448 10.0352 1.53347 12 4.6004 12C7.29212 12 8.77665 10.2138 8.77665 8.44384C8.77665 6.82003 7.65102 5.45602 5.54658 5.05007L3.93155 4.74154C3.08325 4.57916 2.67541 4.07578 2.67541 3.44249C2.67541 2.6793 3.3932 1.98106 4.4862 1.98106C5.95442 1.98106 6.47645 2.97158 6.59064 3.60487L8.61351 2.98782Z" fill="#3787FF"/>
<path d="M12.6043 7.0636C12.6533 6.18674 13.1916 5.50474 14.1052 5.50474C15.1492 5.50474 15.5897 6.20298 15.5897 7.09608V11.7564H17.7594V6.7226C17.7594 4.96888 16.8132 3.55616 14.774 3.55616C14.0073 3.55616 13.1264 3.81597 12.6043 4.43302V0H10.4346V11.7564H12.6043V7.0636Z" fill="#3787FF"/>
<path d="M19.472 9.58051C19.472 10.8309 20.5161 11.9838 22.229 11.9838C23.4199 11.9838 24.1866 11.4317 24.5945 10.7984C24.5945 11.1069 24.6271 11.5453 24.676 11.7564H26.6663C26.6173 11.4804 26.5684 10.912 26.5684 10.4899V6.56022C26.5684 4.95264 25.6222 3.52368 23.0773 3.52368C20.9239 3.52368 19.7657 4.90392 19.6352 6.15426L21.5602 6.56022C21.6254 5.86198 22.1474 5.26116 23.0936 5.26116C24.0072 5.26116 24.4476 5.73207 24.4476 6.30041C24.4476 6.57646 24.3008 6.80379 23.844 6.86874L21.8701 7.16103C20.5324 7.35589 19.472 8.15156 19.472 9.58051ZM22.6858 10.3762C21.9843 10.3762 21.6417 9.92152 21.6417 9.45061C21.6417 8.83356 22.0822 8.52503 22.6369 8.44384L24.4476 8.1678V8.52503C24.4476 9.93775 23.5993 10.3762 22.6858 10.3762Z" fill="#3787FF"/>
<path d="M31.383 1.38024H29.4254V2.50068C29.4254 3.21516 29.0339 3.76725 28.1856 3.76725H27.7778V5.68336H29.2297V9.40189C29.2297 10.9445 30.2085 11.8701 31.7746 11.8701C32.4108 11.8701 32.8023 11.7564 32.9981 11.6752V9.88904C32.8839 9.92152 32.5902 9.95399 32.3292 9.95399C31.7093 9.95399 31.383 9.72666 31.383 9.02842V5.68336H32.9981V3.76725H31.383V1.38024Z" fill="#3787FF"/>
<path d="M34.3312 9.5318C34.4291 10.4411 35.2611 12 37.6755 12C39.7799 12 40.7913 10.6685 40.7913 9.36942C40.7913 8.20027 39.992 7.24222 38.4096 6.91746L37.2676 6.67388C36.8271 6.59269 36.5335 6.34912 36.5335 5.9594C36.5335 5.50474 36.9903 5.16374 37.5613 5.16374C38.4748 5.16374 38.8174 5.76455 38.8827 6.23545L40.6934 5.8295C40.5956 4.96888 39.8288 3.52368 37.5449 3.52368C35.8157 3.52368 34.5433 4.70907 34.5433 6.13802C34.5433 7.25846 35.2447 8.18403 36.7945 8.52503L37.8549 8.76861C38.4748 8.89851 38.7195 9.1908 38.7195 9.54804C38.7195 9.97023 38.3769 10.3437 37.6591 10.3437C36.713 10.3437 36.2399 9.75913 36.1909 9.12585L34.3312 9.5318Z" fill="#3787FF"/>
<path d="M50.3174 3.76725H47.4788L44.7055 6.73884V0H42.5358V11.7564H44.7055V9.64547L45.6028 8.70365L47.7235 11.7564H50.3826L47.1036 7.12855L50.3174 3.76725Z" fill="#3787FF"/>
</svg>
